<svg width="131" height="92" viewBox="0 0 131 92" fill="none" xmlns="http://www.w3.org/2000/svg">
<mask id="mask0_1_157" style="mask-type:luminance" maskUnits="userSpaceOnUse" x="0" y="0" width="131" height="92">
<path d="M131 0.00805664H0V91.9924H131V0.00805664Z" fill="white"/>
</mask>
<g mask="url(#mask0_1_157)">
<mask id="mask1_1_157" style="mask-type:luminance" maskUnits="userSpaceOnUse" x="0" y="0" width="131" height="92">
<path d="M131 0.00805664H0V91.9924H131V0.00805664Z" fill="white"/>
</mask>
<g mask="url(#mask1_1_157)">
<path fill-rule="evenodd" clip-rule="evenodd" d="M7.92637 27.5044C8.54066 27.5049 9.141 27.6863 9.65149 28.0255C10.162 28.3648 10.5597 28.8468 10.7944 29.4105C11.0291 29.9742 11.0901 30.5943 10.9699 31.1925C10.8497 31.7907 10.5536 32.34 10.1189 32.7711C9.68433 33.2021 9.13076 33.4956 8.52822 33.6143C7.92568 33.733 7.30122 33.6716 6.7338 33.4379C6.16637 33.2043 5.68146 32.8088 5.34036 32.3015C4.99926 31.7942 4.8173 31.1979 4.81747 30.5879C4.81759 30.1827 4.89811 29.7815 5.05443 29.4072C5.21075 29.033 5.43981 28.6929 5.72852 28.4066C6.01723 28.1202 6.35994 27.8931 6.73705 27.7383C7.11417 27.5835 7.51831 27.5041 7.92637 27.5044Z" fill="white"/>
<path fill-rule="evenodd" clip-rule="evenodd" d="M7.92638 37.3786C8.43577 37.3784 8.93378 37.5282 9.3574 37.8092C9.78103 38.0901 10.1112 38.4894 10.3063 38.9567C10.5013 39.424 10.5523 39.9382 10.453 40.4343C10.3537 40.9304 10.1084 41.3861 9.74819 41.7438C9.38799 42.1015 8.92905 42.345 8.42943 42.4437C7.92981 42.5423 7.41196 42.4916 6.94137 42.2979C6.47078 42.1043 6.0686 41.7764 5.7857 41.3558C5.5028 40.9351 5.35189 40.4406 5.35207 39.9348C5.35207 39.2568 5.62329 38.6067 6.10606 38.1273C6.58884 37.6479 7.24363 37.3786 7.92638 37.3786Z" fill="white"/>
<path fill-rule="evenodd" clip-rule="evenodd" d="M7.92637 46.8601C8.34442 46.8601 8.75308 46.9832 9.10067 47.2138C9.44827 47.4444 9.71919 47.7722 9.87917 48.1557C10.0392 48.5393 10.081 48.9613 9.99945 49.3684C9.91789 49.7755 9.71658 50.1495 9.42098 50.443C9.12537 50.7366 8.74875 50.9365 8.33873 51.0174C7.92871 51.0984 7.50372 51.0569 7.11749 50.898C6.73126 50.7392 6.40115 50.4701 6.16889 50.125C5.93663 49.7798 5.81267 49.374 5.81267 48.9589C5.81267 48.4023 6.03536 47.8684 6.43176 47.4748C6.82815 47.0812 7.36578 46.8601 7.92637 46.8601Z" fill="white"/>
<path fill-rule="evenodd" clip-rule="evenodd" d="M7.92637 62.3076C8.14463 62.3076 8.35798 62.3718 8.53946 62.4922C8.72093 62.6126 8.86237 62.7838 8.9459 62.984C9.02942 63.1842 9.05127 63.4046 9.00869 63.6171C8.96611 63.8297 8.86101 64.0249 8.70668 64.1782C8.55235 64.3314 8.35572 64.4358 8.14166 64.4781C7.9276 64.5203 7.70571 64.4986 7.50407 64.4157C7.30243 64.3328 7.13008 64.1923 7.00882 64.0121C6.88757 63.8319 6.82285 63.6201 6.82285 63.4033C6.82285 63.1127 6.93911 62.834 7.14606 62.6285C7.35301 62.423 7.6337 62.3076 7.92637 62.3076Z" fill="white"/>
<path fill-rule="evenodd" clip-rule="evenodd" d="M17.2813 61.8747C17.5857 61.8747 17.8834 61.9643 18.1365 62.1323C18.3897 62.3003 18.587 62.539 18.7035 62.8183C18.8201 63.0977 18.8505 63.405 18.7911 63.7016C18.7317 63.9981 18.5851 64.2705 18.3698 64.4843C18.1545 64.698 17.8802 64.8436 17.5816 64.9026C17.283 64.9616 16.9734 64.9313 16.6921 64.8156C16.4108 64.6999 16.1704 64.504 16.0012 64.2526C15.8321 64.0012 15.7418 63.7057 15.7418 63.4033C15.7418 62.9979 15.904 62.6091 16.1927 62.3224C16.4814 62.0357 16.873 61.8747 17.2813 61.8747Z" fill="white"/>
<path fill-rule="evenodd" clip-rule="evenodd" d="M7.92637 55.3954C8.20668 55.3952 8.48074 55.4776 8.71389 55.6321C8.94704 55.7866 9.1288 56.0063 9.23619 56.2634C9.34358 56.5205 9.37177 56.8034 9.31719 57.0765C9.26261 57.3495 9.12772 57.6003 8.92957 57.7971C8.73143 57.994 8.47894 58.1281 8.20403 58.1825C7.92912 58.2368 7.64416 58.209 7.38517 58.1026C7.12619 57.9961 6.90482 57.8157 6.74907 57.5843C6.59332 57.3529 6.51019 57.0808 6.51019 56.8025C6.51019 56.4294 6.65937 56.0717 6.92493 55.8078C7.19049 55.544 7.5507 55.3956 7.92637 55.3954Z" fill="white"/>
<path d="M29.9502 45.7652C29.0105 45.7652 28.2196 46.115 27.634 46.7525L27.5794 46.8059C26.7489 47.8474 25.1275 48.5374 23.2639 48.5374C21.5747 48.5374 20.0766 47.9699 19.2047 47.0901C18.896 46.7996 18.5204 46.5887 18.1106 46.4758C17.7008 46.3629 17.2694 46.3514 16.8541 46.4424C16.4389 46.5333 16.0524 46.724 15.7284 46.9976C15.4045 47.2712 15.1531 47.6194 14.9961 48.0119C14.8391 48.4043 14.7813 48.829 14.8278 49.2487C14.8744 49.6684 15.0238 50.0705 15.263 50.4196C15.5022 50.7687 15.8239 51.0543 16.2 51.2514C16.5761 51.4485 16.9952 51.5511 17.4204 51.5501C18.0792 51.5518 18.7132 51.3012 19.1906 50.8505C20.0766 49.976 21.5747 49.4032 23.2639 49.4032C25.1301 49.4032 26.7515 50.0932 27.5794 51.1347L27.6067 51.1618C27.904 51.4835 28.2666 51.7391 28.6705 51.9117C29.0744 52.0843 29.5106 52.17 29.9502 52.1632C30.8047 52.1632 31.6241 51.8261 32.2283 51.2262C32.8324 50.6263 33.1719 49.8126 33.1719 48.9642C33.1719 48.1158 32.8324 47.3021 32.2283 46.7022C31.6241 46.1022 30.8047 45.7652 29.9502 45.7652Z" fill="white"/>
</g>
<mask id="mask2_1_157" style="mask-type:luminance" maskUnits="userSpaceOnUse" x="14" y="36" width="20" height="8">
<path d="M26.7894 37.8517C25.9721 38.9746 24.8421 39.4748 23.4524 39.4748C22.1445 39.4477 20.9459 38.7175 20.2378 37.9741C19.4451 37.1346 18.5891 36.7288 17.5402 36.7288C16.6895 36.7427 15.8784 37.088 15.2818 37.6903C14.6852 38.2926 14.3508 39.1035 14.3508 39.9483C14.3508 40.7931 14.6852 41.6041 15.2818 42.2064C15.8784 42.8086 16.6895 43.1539 17.5402 43.1679C18.5891 43.1679 19.4064 42.7219 20.251 41.9094C21.1361 41.0577 22.1586 40.449 23.4656 40.449C24.828 40.449 25.8091 40.8145 26.7621 42.0179C27.5388 42.9798 28.6115 43.7354 29.9326 43.7354C30.5886 43.7361 31.2336 43.5681 31.8048 43.2478C32.3761 42.9275 32.8541 42.4659 33.1923 41.9078C33.5306 41.3497 33.7177 40.7142 33.7352 40.063C33.7528 39.4119 33.6003 38.7673 33.2927 38.192C32.985 37.6167 32.5326 37.1303 31.9794 36.7801C31.4263 36.4299 30.7913 36.2278 30.1362 36.1936C29.4811 36.1593 28.8283 36.294 28.2412 36.5846C27.6541 36.8751 27.1527 37.3117 26.7858 37.8517" fill="white"/>
</mask>
<g mask="url(#mask2_1_157)">
<mask id="mask3_1_157" style="mask-type:luminance" maskUnits="userSpaceOnUse" x="14" y="36" width="20" height="8">
<path d="M33.7373 36.1883H14.2983V43.7363H33.7373V36.1883Z" fill="white"/>
</mask>
<g mask="url(#mask3_1_157)">
<mask id="mask4_1_157" style="mask-type:luminance" maskUnits="userSpaceOnUse" x="14" y="36" width="20" height="8">
<path d="M33.7364 36.1883H14.2983V43.7363H33.7364V36.1883Z" fill="white"/>
</mask>
<g mask="url(#mask4_1_157)">
<path d="M33.7364 36.1883H14.2983V43.7363H33.7364V36.1883Z" fill="url(#paint0_linear_1_157)"/>
</g>
</g>
</g>
<mask id="mask5_1_157" style="mask-type:luminance" maskUnits="userSpaceOnUse" x="0" y="0" width="131" height="92">
<path d="M131 0.00805664H0V91.9924H131V0.00805664Z" fill="white"/>
</mask>
<g mask="url(#mask5_1_157)">
<path fill-rule="evenodd" clip-rule="evenodd" d="M26.9391 28.072C26.5116 28.0733 26.0914 28.1819 25.7176 28.3877C25.3437 28.5935 25.0283 28.8898 24.8007 29.2491C24.4194 29.8612 23.9288 30.1419 23.2207 30.1419C22.4167 30.1419 21.6954 29.6006 21.2321 28.7488C20.8241 28.0255 20.1864 27.4567 19.4185 27.1313C18.6506 26.8058 17.7958 26.742 16.9876 26.9498C16.1793 27.1576 15.4631 27.6254 14.9508 28.28C14.4386 28.9346 14.159 29.7393 14.1558 30.5683C14.1527 31.3974 14.4261 32.2041 14.9334 32.8626C15.4406 33.521 16.1532 33.9942 16.9599 34.2081C17.7665 34.422 18.6218 34.3646 19.3921 34.0449C20.1625 33.7253 20.8045 33.1613 21.218 32.441C21.6813 31.5893 22.3894 31.0479 23.2067 31.0479C23.9288 31.0479 24.4194 31.3322 24.7875 31.9408C25.0233 32.311 25.3522 32.6138 25.7417 32.8194C26.1312 33.025 26.5679 33.1263 27.0088 33.1133C27.4498 33.1003 27.8797 32.9735 28.2562 32.7453C28.6327 32.5171 28.9429 32.1954 29.1561 31.812C29.3694 31.4285 29.4784 30.9965 29.4723 30.5586C29.4662 30.1206 29.3454 29.6917 29.1216 29.3142C28.8978 28.9368 28.5789 28.6237 28.1962 28.4058C27.8135 28.188 27.3802 28.0729 26.9391 28.072Z" fill="white"/>
<path d="M17.2813 54.7194C17.6962 54.7194 18.1018 54.8415 18.4468 55.0704C18.7917 55.2993 19.0606 55.6247 19.2194 56.0053C19.3782 56.3859 19.4197 56.8048 19.3388 57.2089C19.2578 57.613 19.058 57.9841 18.7647 58.2754C18.4713 58.5668 18.0975 58.7652 17.6905 58.8456C17.2836 58.9259 16.8618 58.8847 16.4784 58.727C16.0951 58.5693 15.7675 58.3024 15.537 57.9598C15.3064 57.6172 15.1834 57.2145 15.1834 56.8025C15.1833 56.5289 15.2375 56.258 15.3429 56.0052C15.4483 55.7524 15.6028 55.5227 15.7976 55.3292C15.9924 55.1358 16.2237 54.9824 16.4783 54.8777C16.7329 54.7731 17.0057 54.7193 17.2813 54.7194Z" fill="white"/>
<path fill-rule="evenodd" clip-rule="evenodd" d="M28.1113 54.2865C28.6124 54.2865 29.1023 54.4341 29.519 54.7105C29.9357 54.987 30.2605 55.3799 30.4522 55.8397C30.644 56.2994 30.6942 56.8053 30.5964 57.2933C30.4987 57.7814 30.2573 58.2297 29.903 58.5815C29.5486 58.9334 29.0971 59.173 28.6056 59.2701C28.1141 59.3672 27.6047 59.3174 27.1417 59.1269C26.6787 58.9365 26.283 58.614 26.0045 58.2003C25.7261 57.7865 25.5775 57.3001 25.5775 56.8025C25.5775 56.1352 25.8445 55.4952 26.3196 55.0234C26.7948 54.5516 27.4393 54.2865 28.1113 54.2865Z" fill="white"/>
<path d="M123.123 40.6554C121.4 39.3623 118.616 38.4627 114.772 37.9566C111.717 37.257 109.224 36.8154 109.224 34.1717C109.224 32.9194 110.554 31.208 113.61 31.208H122.329C122.735 31.208 123.071 30.9719 123.071 30.5818L123.113 26.3938C123.113 26.0877 123.025 25.7396 122.483 25.7396H113.55C110.439 25.7396 107.819 26.5748 105.815 28.2302C103.839 29.8866 102.845 32.1262 102.845 34.7017C102.845 37.5264 103.672 39.613 105.311 40.9763C106.951 42.2986 109.72 43.2125 113.62 43.718C115.822 44.052 117.305 44.4832 118.09 44.9974C118.874 45.5221 119.253 46.3747 119.253 47.572C119.253 48.7403 118.791 49.6865 117.879 50.4377C116.983 51.1618 115.806 51.523 114.334 51.523H100.322C100.254 51.5233 100.187 51.5101 100.124 51.4844C100.061 51.4586 100.003 51.4208 99.9553 51.373C99.9071 51.3252 99.8689 51.2684 99.8428 51.2059C99.8168 51.1434 99.8034 51.0764 99.8036 51.0088V26.1725C99.8026 26.051 99.7536 25.9348 99.6671 25.8489C99.5806 25.763 99.4635 25.7143 99.3412 25.7134H93.3022C92.5175 25.7134 91.9151 25.9635 91.5505 26.6596L83.0076 42.8688C82.783 43.2999 82.1269 43.1311 82.1269 42.6467V26.1716C82.126 26.0503 82.0771 25.9342 81.9907 25.8483C81.9044 25.7624 81.7876 25.7137 81.6654 25.7125H76.1654C75.4221 25.7125 74.8337 25.9626 74.4559 26.587L62.6007 46.4718C62.6007 46.4718 59.7287 50.7849 56.1134 50.7849H51.1815C51.0447 50.7825 50.9141 50.7274 50.8174 50.6313C50.7206 50.5353 50.6652 50.4057 50.6627 50.2698V32.1262C50.6626 32.0586 50.6759 31.9916 50.702 31.9291C50.728 31.8666 50.7662 31.8098 50.8144 31.762C50.8626 31.7143 50.9199 31.6764 50.9829 31.6507C51.0459 31.6249 51.1133 31.6118 51.1815 31.612H55.8615C59.7287 31.612 62.4334 34.6588 62.6289 38.4988L62.8394 42.0607C62.8422 42.0772 62.8496 42.0925 62.8609 42.1049C62.8721 42.1173 62.8867 42.1262 62.9029 42.1306C62.9191 42.135 62.9363 42.1347 62.9523 42.1298C62.9684 42.1249 62.9827 42.1155 62.9935 42.1027L67.4622 34.2015C67.8691 33.2692 68.0373 32.6571 67.3504 31.6409C66.7057 30.6955 64.2115 25.7414 57.1773 25.7414H44.0768C43.9545 25.7425 43.8376 25.7912 43.7511 25.8771C43.6646 25.963 43.6156 26.0791 43.6144 26.2005V56.0215C43.6153 56.143 43.6643 56.2593 43.7509 56.3452C43.8374 56.4311 43.9544 56.4797 44.0768 56.4807H54.5299C57.3983 56.4788 60.2156 55.7263 62.6978 54.2989C65.18 52.8716 67.2395 50.8198 68.6688 48.3503L74.9042 37.6226C74.9511 37.5417 75.0235 37.4785 75.1103 37.4426C75.197 37.4067 75.2932 37.4001 75.384 37.4239C75.4749 37.4477 75.5554 37.5005 75.613 37.5741C75.6706 37.6478 75.7023 37.7383 75.703 37.8316V55.9612C75.7039 56.0827 75.7529 56.1989 75.8394 56.2848C75.926 56.3707 76.043 56.4194 76.1654 56.4203H80.9855C81.7561 56.4203 82.3065 56.0023 82.6668 55.335L92.2374 37.8447C92.288 37.7549 92.367 37.6843 92.4621 37.6436C92.5573 37.603 92.6632 37.5947 92.7636 37.6201C92.864 37.6454 92.9532 37.7029 93.0173 37.7837C93.0814 37.8644 93.1168 37.964 93.1181 38.0668V51.8667C93.1171 52.4627 93.2345 53.053 93.4637 53.6038C93.6929 54.1546 94.0294 54.6551 94.4538 55.0765C94.8782 55.498 95.3822 55.8321 95.9369 56.0596C96.4916 56.2872 97.0861 56.4039 97.6863 56.4028H114.304C117.752 56.4028 120.507 55.5029 122.572 53.7032C124.66 51.9087 125.702 49.6548 125.696 46.9414C125.696 44.0328 124.842 41.9322 123.119 40.6519" fill="white"/>
<path d="M44.5955 63.4611C44.9038 63.4611 45.1556 63.3736 45.3239 63.2101C45.4921 63.0465 45.5881 62.7789 45.5881 62.4309C45.5881 62.0828 45.5 61.8187 45.3239 61.6517C45.1556 61.4846 44.9038 61.4007 44.5955 61.4007H44.105V63.4611H44.5955ZM43.6003 60.9424H44.6378C45.5062 60.9424 46.1086 61.4846 46.0945 62.4291C46.1086 63.3754 45.5062 63.9158 44.6378 63.9158H43.5862V60.9424H43.6003Z" fill="white"/>
<path d="M47.8321 60.9424H47.3134V63.9202H47.8321V60.9424Z" fill="white"/>
<path d="M50.4945 60.9005C51.2369 60.9005 51.7134 61.3456 51.7557 61.9438H51.2369C51.1955 61.5817 50.9428 61.3596 50.5227 61.3596H50.4804C49.9062 61.3596 49.5416 61.7767 49.5557 62.4309C49.5557 63.085 49.9203 63.5162 50.4804 63.5022H50.5227C50.9569 63.5022 51.2792 63.252 51.3356 62.89V62.834H50.4945V62.3749H51.4051C51.6438 62.3749 51.7698 62.5008 51.7698 62.737V63.9053H51.3215V63.5992C51.2243 63.7078 51.1039 63.7935 50.9692 63.8502C50.8022 63.9201 50.6219 63.9532 50.4408 63.9473C50.18 63.951 49.9232 63.8835 49.6983 63.7523C49.4831 63.6211 49.3085 63.4335 49.1937 63.2101C49.0748 62.9673 49.0128 62.7009 49.0123 62.4309C49.0123 61.5564 49.6147 60.8865 50.4971 60.9005" fill="white"/>
<path d="M53.5356 60.9424H53.0168V63.9202H53.5356V60.9424Z" fill="white"/>
<path d="M55.651 61.3876H54.6004V60.9285H57.2064V61.3876H56.1557V63.9062H55.651V61.3876Z" fill="white"/>
<path d="M59.5605 62.723L59.07 61.4706L58.5794 62.723H59.5605ZM59.7428 63.1821H58.4121L58.1311 63.9062H57.6027L58.7934 60.9328H59.4099L60.5733 63.9062H60.0449L59.7428 63.1821Z" fill="white"/>
<path d="M61.6064 60.9416H62.1251V63.4611H63.8346V63.9193H61.6064V60.9416Z" fill="white"/>
<path d="M70.9243 60.9416V63.9193H70.4205V61.4567L69.6217 63.9193H69.0334L68.2064 61.4707V63.9193H67.7018V60.9416H68.5147L69.3267 63.3771L70.1123 60.9416H70.9243Z" fill="white"/>
<path d="M73.5867 63.5022C74.1336 63.5022 74.4841 63.0981 74.4841 62.4309C74.4841 61.7636 74.1318 61.3596 73.5867 61.3596H73.5453C72.9984 61.3596 72.6478 61.7627 72.6478 62.4309C72.6478 63.099 73.0001 63.5022 73.5453 63.5022H73.5867ZM73.5585 60.9005C74.3855 60.8865 75.002 61.4846 74.9879 62.4309C75.002 63.3631 74.3855 63.9613 73.5585 63.9613C72.7183 63.9753 72.1159 63.3771 72.13 62.4309C72.1159 61.4846 72.7324 60.8865 73.5585 60.9005Z" fill="white"/>
<path d="M77.4679 63.4611C77.7762 63.4611 77.9585 63.3071 77.9585 63.043C77.9585 62.7789 77.7762 62.6259 77.4679 62.6259H76.7097V63.4611H77.4679ZM77.4406 62.1808C77.7207 62.1808 77.8889 62.0417 77.8889 61.7907C77.8889 61.5397 77.7207 61.3989 77.4406 61.3989H76.7097V62.1921H77.4389L77.4406 62.1808ZM76.1936 60.9424H77.5146C78.0334 60.9424 78.4112 61.2756 78.4112 61.7216C78.4189 61.8775 78.3691 62.0308 78.2711 62.1528C78.1779 62.2709 78.0508 62.3581 77.9065 62.4029C78.2289 62.4589 78.4675 62.723 78.4675 63.113C78.4816 63.5712 78.0615 63.9193 77.5569 63.9062H76.1936V60.9424Z" fill="white"/>
<path d="M80.2008 60.9424H79.682V63.9202H80.2008V60.9424Z" fill="white"/>
<path d="M81.5738 60.9416H82.0925V63.4611H83.802V63.9193H81.5738V60.9416Z" fill="white"/>
<path d="M85.3996 60.9424H84.8809V63.9202H85.3996V60.9424Z" fill="white"/>
<path d="M87.5291 61.3876H86.4785V60.9285H89.0845V61.3876H88.0338V63.9062H87.5291V61.3876Z" fill="white"/>
<path d="M92.5175 60.9416L91.4245 62.709V63.9193H90.9207V62.709L89.8269 60.9416H90.4152L91.2008 62.2219L91.9714 60.9416H92.5175Z" fill="white"/>
<path d="M96.6136 62.932C96.6277 63.2818 96.8937 63.5022 97.3279 63.5022H97.3702C97.7224 63.5022 97.9171 63.3211 97.9171 63.099C97.9171 62.904 97.8044 62.7789 97.5243 62.723L97.0196 62.6259C96.515 62.514 96.249 62.2359 96.249 61.7767C96.2349 61.3176 96.6832 60.9022 97.3561 60.9022C98.043 60.9022 98.4772 61.2914 98.4772 61.8642H97.9585C97.9444 61.5441 97.6943 61.3631 97.3561 61.3631H97.3138C96.9782 61.3631 96.7537 61.5441 96.7537 61.7662C96.7537 61.9884 96.8796 62.0863 97.1315 62.1423L97.5948 62.2394C98.1232 62.3513 98.4209 62.6154 98.4209 63.0876C98.4209 63.6027 97.9867 63.9788 97.2865 63.9622C96.515 63.9622 96.109 63.5721 96.0949 62.946H96.6136V62.932Z" fill="white"/>
<path d="M100.939 63.5022C101.486 63.5022 101.836 63.0981 101.836 62.4309C101.836 61.7636 101.484 61.3596 100.939 61.3596H100.897C100.35 61.3596 100 61.7627 100 62.4309C100 63.099 100.352 63.5022 100.897 63.5022H100.939ZM100.929 60.9005C101.756 60.8865 102.373 61.4846 102.359 62.4309C102.373 63.3631 101.756 63.9613 100.929 63.9613C100.089 63.9753 99.4865 63.3771 99.4997 62.4309C99.4724 61.4846 100.089 60.8865 100.929 60.9005Z" fill="white"/>
<path d="M103.559 60.9416H104.078V63.4611H105.787V63.9193H103.559V60.9416Z" fill="white"/>
<path d="M106.754 60.9424H107.259V62.7929C107.259 63.2652 107.468 63.4882 107.889 63.4882H107.931C108.351 63.4882 108.561 63.252 108.561 62.7929V60.9424H109.08V62.8664C109.08 63.2162 108.982 63.4785 108.786 63.6736C108.59 63.8686 108.309 63.9656 107.918 63.9656C107.526 63.9656 107.245 63.8686 107.048 63.6736C106.852 63.4785 106.754 63.2144 106.754 62.8664V60.9424Z" fill="white"/>
<path d="M111.168 61.3876H110.117V60.9285H112.724V61.3876H111.672V63.9062H111.168V61.3876Z" fill="white"/>
<path d="M114.335 60.9424H113.817V63.9202H114.335V60.9424Z" fill="white"/>
<path d="M116.983 63.5022C117.53 63.5022 117.88 63.0981 117.88 62.4309C117.88 61.7636 117.528 61.3596 116.983 61.3596H116.941C116.394 61.3596 116.044 61.7627 116.044 62.4309C116.044 63.099 116.396 63.5022 116.941 63.5022H116.983ZM116.969 60.9005C117.796 60.8865 118.412 61.4846 118.398 62.4309C118.412 63.3631 117.796 63.9613 116.969 63.9613C116.128 63.9753 115.526 63.3771 115.54 62.4309C115.512 61.4846 116.128 60.8865 116.969 60.9005Z" fill="white"/>
<path d="M122.056 60.9416V63.9193H121.369L120.107 61.6237V63.9193H119.59V60.9416H120.276L121.537 63.2381V60.9416H122.056Z" fill="white"/>
<path d="M123.723 62.932C123.737 63.2818 124.003 63.5022 124.438 63.5022H124.479C124.832 63.5022 125.026 63.3211 125.026 63.099C125.026 62.904 124.914 62.7789 124.634 62.723L124.129 62.6259C123.625 62.514 123.359 62.2359 123.359 61.7767C123.345 61.3176 123.793 60.9022 124.466 60.9022C125.139 60.9022 125.586 61.2914 125.586 61.8642H125.068C125.054 61.5441 124.803 61.3631 124.466 61.3631H124.424C124.087 61.3631 123.863 61.5441 123.863 61.7662C123.863 61.9884 123.989 62.0863 124.241 62.1423L124.704 62.2394C125.232 62.3513 125.531 62.6154 125.531 63.0876C125.531 63.6027 125.096 63.9788 124.396 63.9622C123.625 63.9622 123.218 63.5721 123.205 62.946H123.723V62.932Z" fill="white"/>
</g>
<path d="M44.3304 68.4213V70.2779C44.3304 71.1935 43.9253 71.5748 43.0446 71.5748V71.0868C43.5211 71.0868 43.7562 70.8525 43.7562 70.3645V68.4213H44.3304ZM46.3693 70.7309H45.6982C45.5791 70.7389 45.4598 70.7193 45.3496 70.6738C45.2395 70.6283 45.1414 70.558 45.0632 70.4686C44.9168 70.2799 44.8439 70.0452 44.858 69.8074V67.4497H45.4269V69.5765C45.4269 69.8258 45.4833 69.9884 45.5907 70.0645C45.6673 70.1205 45.8162 70.152 46.0311 70.152H46.3693V70.7309ZM49.5398 70.7309H48.8071C48.7014 70.8751 48.5613 70.9909 48.3995 71.0682C48.2377 71.1454 48.0591 71.1815 47.8797 71.1734C47.7019 71.1809 47.525 71.1443 47.365 71.0671C47.205 70.9899 47.0668 70.8743 46.9629 70.7309H46.179V70.1511H46.7321C46.7268 70.0951 46.7268 70.0392 46.7268 69.9832C46.7214 69.8294 46.7467 69.676 46.8013 69.5319C46.8559 69.3878 46.9386 69.2558 47.0448 69.1437C47.1532 69.034 47.2834 68.948 47.4272 68.8911C47.5709 68.8341 47.725 68.8076 47.8797 68.8131C48.0346 68.8065 48.1892 68.8336 48.3325 68.8925C48.4758 68.9515 48.6044 69.0407 48.7093 69.1542C48.9224 69.3854 49.0364 69.69 49.0272 70.0033V70.1511H49.5398V70.7309ZM48.438 69.9981C48.4427 69.8332 48.3942 69.6711 48.2998 69.5354C48.2491 69.4689 48.1832 69.4153 48.1076 69.3791C48.0319 69.3429 47.9487 69.3252 47.8647 69.3273C47.7839 69.3244 47.7037 69.3413 47.6311 69.3768C47.5586 69.4122 47.496 69.4649 47.449 69.5302C47.3576 69.6615 47.311 69.8184 47.316 69.978C47.316 70.3444 47.5415 70.6443 47.8955 70.6443C47.9744 70.6471 48.0528 70.631 48.1241 70.5974C48.1954 70.5638 48.2574 70.5136 48.3051 70.4511C48.396 70.3178 48.4411 70.1589 48.4336 69.9981H48.438ZM49.8939 67.9578H49.3302V67.3929H49.8939V67.9578ZM51.7328 70.7353H49.3663V70.1555H49.8991C50.0682 70.1555 50.181 70.0995 50.2426 69.9806C50.2912 69.8577 50.3119 69.7258 50.3034 69.594V68.4213H50.8723V69.5582C50.8723 69.8581 50.8318 70.0514 50.749 70.1485H51.7328V70.7353ZM50.3853 67.1594H49.8269V66.5848H50.3853V67.1594ZM50.867 67.9578H50.3034V67.3929H50.867V67.9578ZM52.1071 67.9526H51.5434V67.3885H52.1071V67.9526ZM53.9407 70.7353H51.5742V70.1555H52.1027C52.2718 70.1555 52.3845 70.0995 52.4461 69.9806C52.4951 69.8578 52.5161 69.7258 52.5078 69.594V68.4213H53.0759V69.5582C53.0759 69.8581 53.0353 70.0514 52.9534 70.1485H53.9363L53.9407 70.7353ZM53.0803 67.9526H52.5166V67.3885H53.0803V67.9526ZM53.798 70.1555H54.2181C54.5096 70.1555 54.6532 69.957 54.6532 69.5547V68.4213H55.2318V69.5319C55.2318 69.8319 55.201 70.0252 55.1438 70.1222V70.1529H55.6722C55.9637 70.1529 56.1073 69.9648 56.1073 69.5879V68.4213H56.6859V69.5319C56.6859 69.8625 56.6454 70.0715 56.5679 70.1529H57.1262C57.4186 70.1529 57.5666 69.9648 57.5666 69.5932V68.4213H58.1452V69.5206C58.1452 70.2526 57.7357 70.7309 57.1518 70.7309H53.8051L53.798 70.1555ZM61.9076 70.7353H58.7009V70.1555H59.4839L58.8392 67.8153H59.4478L60.0881 70.1555C60.1513 70.1614 60.2152 70.1545 60.2757 70.1353C60.3363 70.116 60.3923 70.0848 60.4403 70.0435C60.5372 69.9465 60.583 69.7812 60.583 69.5547V67.4558H61.1414V69.9386C61.1427 70.012 61.1359 70.0853 61.1211 70.1572H61.9138L61.9076 70.7353ZM59.6178 71.7777H58.7309V71.5433H58.9361C58.9152 71.4866 58.8999 71.4281 58.8903 71.3684C58.8882 71.3146 58.8968 71.2609 58.9158 71.2104C58.9348 71.1599 58.9637 71.1137 59.0008 71.0744C59.0379 71.0351 59.0825 71.0035 59.132 70.9815C59.1816 70.9594 59.235 70.9474 59.2892 70.946C59.361 70.9468 59.4307 70.9698 59.4887 71.0118C59.5466 71.0538 59.5899 71.1128 59.6125 71.1804L59.4275 71.2679C59.4231 71.2344 59.4057 71.204 59.3791 71.1831C59.3524 71.1622 59.3186 71.1525 59.2848 71.1559C59.235 71.1591 59.1884 71.1818 59.1554 71.219C59.1224 71.2562 59.1056 71.3049 59.1087 71.3544C59.105 71.392 59.1116 71.4298 59.1279 71.4638C59.1442 71.4979 59.1695 71.5269 59.2012 71.5477H59.616L59.6178 71.7777ZM63.1829 69.8144C63.1829 70.4266 62.8966 70.7353 62.3224 70.7353H61.7182V70.1555H62.2044C62.3946 70.1555 62.5118 70.0995 62.5681 69.9876C62.6024 69.8686 62.6164 69.7447 62.6095 69.6212V67.4497H63.1829V69.8144ZM69.0211 70.1555V70.7353C68.3905 70.7353 68.2117 70.6382 67.9757 70.2875C67.8119 71.0807 67.1249 71.5792 66.29 71.5792C66.0568 71.5812 65.8255 71.5368 65.6098 71.4487C65.3942 71.3605 65.1985 71.2303 65.0343 71.0658C64.8701 70.9013 64.7408 70.7059 64.6539 70.4909C64.5671 70.276 64.5245 70.046 64.5286 69.8144V69.2451H65.1028V69.748C65.1028 70.535 65.5634 71.03 66.3067 71.03C66.9725 71.03 67.4745 70.5927 67.4745 70.0742C67.4745 69.7584 67.2852 69.5346 66.9576 69.5346C66.9281 69.534 66.8987 69.5357 66.8695 69.5398V69.0212H67.095C67.5459 69.0212 67.8876 69.2241 68.1087 69.6264C68.3191 70.0077 68.5191 70.1555 68.8132 70.1555H69.0211ZM66.0901 72.7038H65.5247V72.1389H66.0874L66.0901 72.7038ZM67.0588 72.7038H66.4934V72.1389H67.0571L67.0588 72.7038ZM72.2224 70.7353H71.4906C71.3847 70.8793 71.2447 70.995 71.0829 71.0722C70.9211 71.1494 70.7425 71.1857 70.5632 71.1778C70.3854 71.1853 70.2085 71.1487 70.0485 71.0715C69.8885 70.9942 69.7503 70.8787 69.6464 70.7353H68.8625V70.1555H69.4156C69.4103 70.0995 69.4103 70.0435 69.4103 69.9876C69.4049 69.8337 69.4302 69.6803 69.4848 69.5363C69.5394 69.3922 69.6221 69.2602 69.7283 69.148C69.8367 69.0384 69.9669 68.9524 70.1107 68.8954C70.2544 68.8385 70.4085 68.812 70.5632 68.8175C70.7181 68.811 70.8726 68.8382 71.0159 68.8971C71.1592 68.956 71.2878 69.0452 71.3928 69.1585C71.6059 69.3898 71.7199 69.6944 71.7107 70.0077V70.1555H72.2224V70.7353ZM71.1216 70.0024C71.128 69.8351 71.0801 69.6702 70.985 69.5319C70.9339 69.4647 70.8672 69.4106 70.7905 69.3744C70.7138 69.3382 70.6295 69.3208 70.5447 69.3238C70.464 69.3209 70.3839 69.3378 70.3115 69.3733C70.2391 69.4087 70.1767 69.4614 70.1299 69.5267C70.0381 69.6578 69.9915 69.8149 69.9969 69.9745C69.9969 70.3409 70.2224 70.6408 70.5755 70.6408C70.6545 70.6438 70.7331 70.6278 70.8046 70.5941C70.876 70.5605 70.9382 70.5102 70.9859 70.4476C71.0783 70.3159 71.1258 70.1584 71.1216 69.9981V70.0024ZM75.0407 69.5652C75.0407 70.2368 74.5792 70.7353 73.8958 70.7353H72.0692V70.1555H72.8839C72.7848 69.969 72.7337 69.7611 72.735 69.5503C72.735 68.8586 73.2115 68.375 73.8931 68.375C74.5748 68.375 75.0407 68.8944 75.0407 69.5608V69.5652ZM73.6827 67.943H73.1243V67.378H73.6827V67.943ZM74.4515 69.5652C74.4515 69.1786 74.2155 68.8936 73.8729 68.8936C73.5444 68.8936 73.3242 69.148 73.3242 69.5451C73.3242 69.9115 73.5602 70.2115 73.9028 70.2115C74.2454 70.2115 74.4515 69.9377 74.4515 69.5608V69.5652ZM74.6558 67.943H74.0975V67.378H74.6558V67.943ZM77.5904 70.7309H76.67C76.5819 71.2749 76.116 71.5748 75.4194 71.5748V71.0868C75.8959 71.0868 76.1319 70.8525 76.1319 70.3645V68.4213H76.7096V70.1511H77.5904V70.7309ZM78.8506 69.81C78.8506 70.4222 78.5635 70.7309 77.9902 70.7309H77.3851V70.1511H77.8722C78.0615 70.1511 78.1796 70.0951 78.2359 69.9832C78.2698 69.8641 78.2834 69.7403 78.2764 69.6168V67.4497H78.8506V69.81ZM79.9471 70.7309H79.3782V67.4445H79.9471V70.7309ZM85.3652 70.7309H84.2996C84.167 70.9824 83.9684 71.1936 83.7249 71.3421C83.4813 71.4907 83.2018 71.5711 82.916 71.5748C82.0247 71.5748 81.292 70.7878 81.292 69.8354V69.3369H81.8715V69.7742C81.8715 70.4738 82.2916 71.0352 82.916 71.0352C83.521 71.0352 83.9508 70.4913 83.9508 69.7742V67.4497H84.5303V69.8354C84.5301 69.9414 84.5198 70.0471 84.4995 70.1511H85.3652V70.7309ZM88.608 70.7309H88.0355C87.5441 70.7309 87.1645 70.6391 86.8906 70.4511C86.6264 70.6391 86.2451 70.7309 85.7589 70.7309H85.1283V70.1511H85.7281C85.9844 70.1511 86.1429 70.131 86.2046 70.0951C86.0406 69.9731 85.9101 69.8123 85.825 69.6273C85.748 69.4613 85.7077 69.2809 85.707 69.0982C85.7053 68.9788 85.7262 68.8601 85.7686 68.7484C85.8512 68.5177 86.0042 68.3184 86.2062 68.1781C86.4083 68.0378 86.6494 67.9635 86.8959 67.9657C87.4745 67.9657 88.0893 68.3575 88.0893 69.0789C88.0897 69.2656 88.0478 69.45 87.9669 69.6185C87.8849 69.8069 87.7561 69.9715 87.5926 70.0969C87.6489 70.1327 87.8074 70.1529 88.069 70.1529H88.5974L88.608 70.7309ZM86.6872 67.5669H86.1235V66.9958H86.6872V67.5669ZM87.2156 69.6981C87.323 69.6271 87.4103 69.5301 87.4695 69.4162C87.5287 69.3024 87.5577 69.1755 87.5538 69.0475C87.5538 68.8754 87.485 68.7103 87.3624 68.5886C87.2398 68.4669 87.0736 68.3986 86.9003 68.3986C86.727 68.3986 86.5608 68.4669 86.4382 68.5886C86.3157 68.7103 86.2468 68.8754 86.2468 69.0475C86.2441 69.1753 86.2736 69.3018 86.3327 69.4154C86.3918 69.5291 86.4785 69.6263 86.585 69.6981C86.6851 69.7701 86.7915 69.833 86.903 69.8861C87.011 69.8324 87.1141 69.7695 87.2112 69.6981H87.2156ZM87.6612 67.5669H87.0976V66.9958H87.6612V67.5669ZM90.7966 70.7309H88.4231V70.1511H88.9559C89.125 70.1511 89.2377 70.0951 89.2994 69.9762C89.3488 69.8536 89.3698 69.7215 89.361 69.5897V68.4213H89.93V69.5582C89.93 69.8581 89.8886 70.0514 89.8067 70.1485H90.7904L90.7966 70.7309ZM89.9317 67.9578H89.3681V67.3929H89.9317V67.9578ZM91.1647 67.9526H90.601V67.3885H91.1647V67.9526ZM93.0027 70.7309H90.6336V70.1511H91.1665C91.3347 70.1511 91.4474 70.0951 91.5091 69.9762C91.5585 69.8536 91.5795 69.7215 91.5707 69.5897V68.4213H92.1396V69.5582C92.1396 69.8581 92.0983 70.0514 92.0163 70.1485H93.0027V70.7309ZM92.1423 67.9482H91.5786V67.3841H92.1423V67.9482ZM94.2991 69.81C94.2991 70.4222 94.012 70.7309 93.4378 70.7309H92.8336V70.1511H93.3207C93.51 70.1511 93.628 70.0951 93.6844 69.9832C93.7182 69.8641 93.7319 69.7403 93.7249 69.6168V67.4497H94.2991V69.81ZM95.3956 70.7309H94.8267V67.4445H95.3956V70.7309ZM99.9753 69.8354C99.9753 70.7711 99.2531 71.5748 98.3618 71.5748C97.4706 71.5748 96.7378 70.7878 96.7378 69.8354V69.3369H97.3182V69.7742C97.3182 70.4738 97.7383 71.0352 98.3636 71.0352C98.9678 71.0352 99.3976 70.4808 99.3976 69.7742V67.4497H99.9771L99.9753 69.8354ZM103.371 70.7309H102.675C102.598 71.2906 102.225 71.5704 101.558 71.5704V71.1227C101.856 71.1227 102.045 71.0003 102.127 70.7309H101.579C100.963 70.7309 100.457 70.2167 100.457 69.5459C100.457 68.8752 100.954 68.4161 101.602 68.4161C102.226 68.4161 102.668 68.8944 102.668 69.5608V70.1511H103.372L103.371 70.7309ZM102.096 70.1511V69.4515C102.065 69.1515 101.891 68.9373 101.594 68.9373C101.256 68.9373 101.041 69.1716 101.041 69.5127C101.041 69.8538 101.281 70.1485 101.589 70.1485L102.096 70.1511ZM105.585 70.7309H103.238V70.1511H103.767C103.936 70.1511 104.049 70.0951 104.11 69.9762C104.16 69.8536 104.181 69.7215 104.172 69.5897V67.4497H104.741V69.5608C104.741 69.8608 104.699 70.054 104.618 70.1511H105.581L105.585 70.7309ZM109.027 70.375V70.7309H105.421V70.1511H108.407C108.417 69.8591 108.323 69.5731 108.143 69.3422C107.933 69.0798 107.636 68.9556 107.262 68.9556C107.114 68.9592 106.967 68.9919 106.832 69.0518C106.656 69.1228 106.498 69.2326 106.371 69.3728C106.315 69.2661 106.222 69.1183 106.094 68.925C106.255 68.7742 106.44 68.652 106.642 68.5639C106.909 68.4502 107.2 68.4034 107.489 68.4273C107.778 68.4512 108.057 68.5453 108.302 68.7012C108.787 69.0221 109.032 69.5766 109.032 70.375H109.027ZM113.636 70.7309H113.019C112.574 70.7309 112.21 70.431 112.092 69.978C111.916 70.2324 111.693 70.3592 111.437 70.3592C110.781 70.3592 110.38 69.8713 110.38 69.1638C110.38 68.4012 110.784 67.9281 111.437 67.9281H112.702V69.5407C112.702 69.9377 112.892 70.1529 113.276 70.1529H113.639L113.636 70.7309ZM112.104 69.1078V68.3706H111.586C111.187 68.3706 110.94 68.6863 110.94 69.1577C110.94 69.5486 111.16 69.8844 111.504 69.8844C111.879 69.8861 112.104 69.5407 112.104 69.1078ZM111.684 67.5162H111.121V66.946H111.684V67.5162ZM112.653 67.5162H112.089V66.946H112.653V67.5162ZM116.91 70.375V70.7309H113.484V70.1511H116.296C116.303 69.8574 116.205 69.5707 116.019 69.3422C115.912 69.2141 115.776 69.1125 115.622 69.0454C115.468 68.9783 115.301 68.9476 115.133 68.9556H113.949L114.959 67.4497H115.637L114.946 68.4213H115.197C115.546 68.4118 115.889 68.5095 116.18 68.7012C116.669 69.0221 116.91 69.5766 116.91 70.375H116.91ZM119.457 70.7309H118.543C118.455 71.2749 117.99 71.5748 117.294 71.5748V71.0868C117.77 71.0868 118.005 70.8525 118.005 70.3645V68.4213H118.579V70.1511H119.46L119.457 70.7309ZM120.4 70.7309H119.267V70.1511H120.4V70.7309ZM121.413 70.7309H120.282V70.1511H121.413V70.7309ZM121.306 70.1511H121.726C122.019 70.1511 122.162 69.9526 122.162 69.5503V68.4213H122.741V69.5319C122.741 69.8319 122.71 70.0252 122.648 70.1222V70.1529H123.181C123.473 70.1529 123.617 69.9648 123.617 69.5879V68.4213H124.196V69.5319C124.196 69.8625 124.154 70.0715 124.078 70.1529H124.636C124.928 70.1529 125.071 69.9648 125.071 69.5932V68.4213H125.651V69.5206C125.651 70.2526 125.24 70.7309 124.656 70.7309H121.31L121.306 70.1511ZM123.134 67.9578V67.3929H123.693V67.9578H123.134ZM123.621 67.1594V66.5848H124.184V67.155L123.621 67.1594ZM124.102 67.9578V67.3929H124.661V67.9578H124.102Z" fill="white"/>
</g>
<defs>
<linearGradient id="paint0_linear_1_157" x1="14.3516" y1="40.7652" x2="33.7906" y2="40.7652" gradientUnits="userSpaceOnUse">
<stop stop-color="#3157A7"/>
<stop offset="1" stop-color="#51B848"/>
</linearGradient>
</defs>
</svg>
